<svg width="22" height="20" viewBox="0 0 22 20" fill="none" xmlns="http://www.w3.org/2000/svg">
<path d="M12.5757 18.0622L11.4917 19.0464C11.0327 19.4631 10.2905 19.4631 9.83643 19.0464L0.344238 10.4331C-0.114746 10.0164 -0.114746 9.34254 0.344238 8.93027L9.83643 0.312526C10.2954 -0.104175 11.0376 -0.104175 11.4917 0.312526L12.5757 1.29665C13.0395 1.71779 13.0298 2.4049 12.5562 2.81717L6.67236 7.90625H20.7056C21.355 7.90625 21.8774 8.38058 21.8774 8.97016V10.3887C21.8774 10.9783 21.355 11.4526 20.7056 11.4526H6.67236L12.5562 16.5417C13.0347 16.954 13.0444 17.6411 12.5757 18.0622Z" fill="white" fill-opacity="0.9"/>
</svg>
